<svg width="56" height="56" viewBox="0 0 56 56" fill="none" xmlns="http://www.w3.org/2000/svg">
<path d="M48.9375 15.25H35.6667V12.1875C35.6667 10.499 34.2926 9.125 32.6042 9.125H22.3958C20.7074 9.125 19.3333 10.499 19.3333 12.1875V15.25H6.0625C4.37404 15.25 3 16.624 3 18.3125V30.5625C3 30.9729 3.24704 31.3445 3.62475 31.5037C4.08208 31.6956 4.56392 31.8733 5.04167 32.0529V44.8542C5.04167 46.5426 6.41571 47.9167 8.10417 47.9167H46.8958C48.5843 47.9167 49.9583 46.5426 49.9583 44.8542V32.0529C50.4361 31.8733 50.9179 31.6977 51.3753 31.5037C51.753 31.3445 52 30.9729 52 30.5625V18.3125C52 16.624 50.626 15.25 48.9375 15.25ZM21.375 12.1875C21.375 11.624 21.8323 11.1667 22.3958 11.1667H32.6042C33.1677 11.1667 33.625 11.624 33.625 12.1875V15.25H21.375V12.1875ZM47.9167 44.8542C47.9167 45.4177 47.4593 45.875 46.8958 45.875H8.10417C7.54067 45.875 7.08333 45.4177 7.08333 44.8542V32.7634C11.8323 34.2926 17.3876 35.2461 23.4167 35.5503V36.6875C23.4167 37.251 23.874 37.7083 24.4375 37.7083H30.5625C31.126 37.7083 31.5833 37.251 31.5833 36.6875V35.5503C37.6124 35.2461 43.1678 34.2947 47.9167 32.7634V44.8542ZM25.4583 35.6667V33.625H29.5417V35.6667H25.4583ZM49.9583 29.8785C49.503 30.0603 49.0192 30.2277 48.5394 30.3992C43.7537 32.0958 37.8574 33.1799 31.5833 33.5066V32.6042C31.5833 32.0407 31.126 31.5833 30.5625 31.5833H24.4375C23.874 31.5833 23.4167 32.0407 23.4167 32.6042V33.5066C17.1426 33.1779 11.2443 32.0958 6.46063 30.3992C5.98083 30.2277 5.49696 30.0603 5.04167 29.8785V18.3125C5.04167 17.749 5.499 17.2917 6.0625 17.2917H48.9375C49.501 17.2917 49.9583 17.749 49.9583 18.3125V29.8785Z" fill="#000D1A"/>
<path fill-rule="evenodd" clip-rule="evenodd" d="M23.417 35.55V36.6872C23.417 37.2507 23.8743 37.708 24.4378 37.708H30.5628C31.1263 37.708 31.5837 37.2507 31.5837 36.6872V35.55V33.5063V32.6038C31.5837 32.0403 31.1263 31.583 30.5628 31.583H24.4378C23.8743 31.583 23.417 32.0403 23.417 32.6038V33.5063V35.55ZM25.4587 33.6247V35.6663H29.542V33.6247H25.4587Z" fill="#27AE60"/>
<path d="M35.6663 12.1875V15.25H33.6247V12.1875C33.6247 11.624 33.1673 11.1667 32.6038 11.1667H22.3955C21.832 11.1667 21.3747 11.624 21.3747 12.1875V15.25H19.333V12.1875C19.333 10.499 20.707 9.125 22.3955 9.125H32.6038C34.2923 9.125 35.6663 10.499 35.6663 12.1875Z" fill="#27AE60"/>
<path d="M23.2839 21.7933C22.8054 21.7047 22.8701 21 23.3567 21H45.6C45.8209 21 46 21.1791 46 21.4V25.5191C46 25.7692 45.7731 25.958 45.5272 25.9124L23.2839 21.7933Z" fill="#7DCEA0"/>
</svg>
