<svg width="48" height="44" viewBox="0 0 48 44" fill="none" xmlns="http://www.w3.org/2000/svg">
<path fill-rule="evenodd" clip-rule="evenodd" d="M42.8164 4.00001H36.6775V1.51238C36.6775 0.796051 36.0914 0.209961 35.3751 0.209961C34.6588 0.209961 34.0727 0.796051 34.0727 1.51238V4.00001H25.3089H22.7041H13.8101V1.51238C13.8101 0.796051 13.224 0.209961 12.5077 0.209961C11.7914 0.209961 11.2053 0.796051 11.2053 1.51238V4.00001H5.19667C2.33134 4.00001 0.5 5.92124 0.5 8.78657V39.0679C0.5 41.9463 2.31831 44 5.19667 44H42.8033C45.6817 44 47.5 41.9463 47.5 39.0809V8.78657C47.513 5.92124 45.6817 4.00001 42.8164 4.00001ZM42.8294 41.6727C44.2621 41.6597 45.4082 40.5006 45.4082 39.0679V8.78657C45.4082 7.35391 44.2621 6.11661 42.8164 6.11661H36.6775V8.00512C36.6775 8.72145 36.0914 9.30754 35.3751 9.30754C34.6588 9.30754 34.0727 8.72145 34.0727 8.00512V6.11661H25.3089H22.7041H13.8101V8.00512C13.8101 8.72145 13.224 9.30754 12.5077 9.30754C11.7914 9.30754 11.2053 8.72145 11.2053 8.00512V6.11661H5.19667C3.764 6.11661 2.60485 7.34088 2.60485 8.78657V39.0679V39.0809C2.60485 40.5136 3.764 41.6727 5.19667 41.6727H42.8164H42.8294Z" fill="#000D1A"/>
<path d="M20.5807 14.582H18.3014C17.5851 14.582 16.999 15.1681 16.999 15.8845C16.999 16.6008 17.5851 17.1869 18.3014 17.1869H20.5807C21.297 17.1869 21.8831 16.6008 21.8831 15.8845C21.8831 15.1681 21.297 14.582 20.5807 14.582Z" fill="#27AE60"/>
<path d="M29.6461 14.582H27.3669C26.6505 14.582 26.0645 15.1681 26.0645 15.8845C26.0645 16.6008 26.6505 17.1869 27.3669 17.1869H29.6461C30.3624 17.1869 30.9485 16.6008 30.9485 15.8845C30.9485 15.1681 30.3755 14.582 29.6461 14.582Z" fill="#27AE60"/>
<path d="M38.7887 14.582H36.5095C35.7931 14.582 35.207 15.1681 35.207 15.8845C35.207 16.6008 35.7931 17.1869 36.5095 17.1869H38.7887C39.505 17.1869 40.0911 16.6008 40.0911 15.8845C40.0911 15.1681 39.505 14.582 38.7887 14.582Z" fill="#27AE60"/>
<path d="M20.5807 23.5693H18.3014C17.5851 23.5693 16.999 24.1554 16.999 24.8718C16.999 25.5881 17.5851 26.1742 18.3014 26.1742H20.5807C21.297 26.1742 21.8831 25.5881 21.8831 24.8718C21.8831 24.1554 21.297 23.5693 20.5807 23.5693Z" fill="#27AE60"/>
<path d="M11.4511 23.5693H9.15887C8.44254 23.5693 7.85645 24.1554 7.85645 24.8718C7.85645 25.5881 8.44254 26.1742 9.15887 26.1742H11.4381C12.1544 26.1742 12.7405 25.5881 12.7405 24.8718C12.7405 24.1554 12.1675 23.5693 11.4511 23.5693Z" fill="#27AE60"/>
<path d="M29.6461 23.5693H27.3669C26.6505 23.5693 26.0645 24.1554 26.0645 24.8718C26.0645 25.5881 26.6505 26.1742 27.3669 26.1742H29.6461C30.3624 26.1742 30.9485 25.5881 30.9485 24.8718C30.9485 24.1554 30.3755 23.5693 29.6461 23.5693Z" fill="#27AE60"/>
<path d="M38.7887 23.5693H36.5095C35.7931 23.5693 35.207 24.1554 35.207 24.8718C35.207 25.5881 35.7931 26.1742 36.5095 26.1742H38.7887C39.505 26.1742 40.0911 25.5881 40.0911 24.8718C40.0911 24.1554 39.505 23.5693 38.7887 23.5693Z" fill="#27AE60"/>
<path d="M20.5807 32.4258H18.3014C17.5851 32.4258 16.999 33.0119 16.999 33.7282C16.999 34.4445 17.5851 35.0306 18.3014 35.0306H20.5807C21.297 35.0306 21.8831 34.4445 21.8831 33.7282C21.8831 33.0119 21.297 32.4258 20.5807 32.4258Z" fill="#27AE60"/>
<path d="M11.4511 32.4258H9.15887C8.44254 32.4258 7.85645 33.0119 7.85645 33.7282C7.85645 34.4445 8.44254 35.0306 9.15887 35.0306H11.4381C12.1544 35.0306 12.7405 34.4445 12.7405 33.7282C12.7405 33.0119 12.1675 32.4258 11.4511 32.4258Z" fill="#27AE60"/>
<path d="M29.6461 32.4258H27.3669C26.6505 32.4258 26.0645 33.0119 26.0645 33.7282C26.0645 34.4445 26.6505 35.0306 27.3669 35.0306H29.6461C30.3624 35.0306 30.9485 34.4445 30.9485 33.7282C30.9485 33.0119 30.3755 32.4258 29.6461 32.4258Z" fill="#27AE60"/>
</svg>
