<svg width="57" height="57" viewBox="0 0 57 57" fill="none" xmlns="http://www.w3.org/2000/svg">
<rect width="57" height="57" fill="white"/>
<path d="M21.1026 24.2429H19.7692V19.0946L18.1774 19.5891V18.5031L20.9596 17.5048H21.1026V24.2429Z" fill="#249052"/>
<path d="M23.1582 20.8926L23.5457 17.4727H27.3106V18.5864H24.6392L24.4731 20.033C24.7899 19.8635 25.1267 19.7788 25.4835 19.7788C26.1233 19.7788 26.6247 19.9775 26.9876 20.375C27.3506 20.7724 27.5321 21.3285 27.5321 22.0433C27.5321 22.4777 27.4398 22.8675 27.2552 23.2125C27.0737 23.5545 26.8123 23.821 26.4709 24.0121C26.1295 24.2 25.7265 24.294 25.2621 24.294C24.8561 24.294 24.4793 24.2123 24.1317 24.049C23.7841 23.8827 23.5088 23.65 23.3058 23.3512C23.1059 23.0523 22.9998 22.7119 22.9875 22.3298H24.307C24.3347 22.6102 24.4316 22.829 24.5977 22.9861C24.7669 23.1401 24.9868 23.2172 25.2575 23.2172C25.5589 23.2172 25.7911 23.1093 25.9541 22.8937C26.1172 22.6749 26.1987 22.3668 26.1987 21.9694C26.1987 21.5873 26.1049 21.2946 25.9172 21.0913C25.7296 20.8879 25.4635 20.7863 25.119 20.7863C24.8022 20.7863 24.5454 20.8695 24.3485 21.0358L24.2193 21.156L23.1582 20.8926Z" fill="#249052"/>
<path d="M14.4167 30.8075L15.7224 27.383H17.3926V32.3834H16.0592V29.3148L14.8642 32.3834H13.9692L12.7973 29.3656V32.3834H11.4639V27.383H13.1202L14.4167 30.8075Z" fill="#249052"/>
<path d="M21.5635 27.383H22.8968V32.3834H21.5635V29.2963L19.8933 32.3834H18.5553V27.383H19.8933V30.4655L21.5635 27.383Z" fill="#249052"/>
<path d="M28.2442 32.3834H26.9062V30.4609H25.2499V32.3834H23.9165V27.383H25.2499V29.3887H26.9062V27.383H28.2442V32.3834Z" fill="#249052"/>
<path d="M31.1417 30.4933L32.0644 27.383H33.4947L31.4877 33.1599L31.377 33.4233C31.0786 34.0764 30.5865 34.403 29.9006 34.403C29.7068 34.403 29.5099 34.3738 29.31 34.3152V33.3031L29.513 33.3077C29.7652 33.3077 29.9529 33.2692 30.0759 33.1922C30.202 33.1152 30.3004 32.9873 30.3712 32.8086L30.528 32.3973L28.7794 27.383H30.2143L31.1417 30.4933Z" fill="#249052"/>
<path d="M38.1639 28.4552H36.5629V32.3834H35.2249V28.4552H33.6516V27.383H38.1639V28.4552Z" fill="#249052"/>
<path d="M45.8321 26.4161C45.8321 14.5887 36.2434 5 24.4161 5C12.5888 5 3 14.5887 3 26.4161C3 38.2435 12.5887 47.8322 24.4161 47.8322C29.7785 47.8322 34.6678 45.8477 38.4255 42.5907L49.8348 54L52 51.8348L40.5906 40.4255C43.8476 36.6678 45.8321 31.7785 45.8321 26.4161ZM24.4161 44.7696C14.2961 44.7696 6.0625 36.5361 6.0625 26.416C6.0625 16.2959 14.296 8.0625 24.4161 8.0625C34.5361 8.0625 42.7697 16.296 42.7697 26.4161C42.7697 36.5362 34.5361 44.7696 24.4161 44.7696Z" fill="#2B2F33"/>
</svg>
