<svg width="57" height="57" viewBox="0 0 57 57" fill="none" xmlns="http://www.w3.org/2000/svg">
<rect width="57" height="57" fill="white"/>
<path d="M45.8321 26.4161C45.8321 14.5887 36.2434 5 24.4161 5C12.5888 5 3 14.5887 3 26.4161C3 38.2435 12.5887 47.8322 24.4161 47.8322C29.7785 47.8322 34.6678 45.8477 38.4255 42.5907L49.8348 54L52 51.8348L40.5906 40.4255C43.8476 36.6678 45.8321 31.7785 45.8321 26.4161ZM24.4161 44.7696C14.2961 44.7696 6.0625 36.5361 6.0625 26.416C6.0625 16.2959 14.296 8.0625 24.4161 8.0625C34.5361 8.0625 42.7697 16.296 42.7697 26.4161C42.7697 36.5362 34.5361 44.7696 24.4161 44.7696Z" fill="#2B2F33"/>
<path d="M24 38C17.9249 38 13 32.8513 13 26.5C13 20.1487 17.9249 15 24 15" stroke="#4D565F" stroke-width="2" stroke-linecap="round" stroke-linejoin="round"/>
<path d="M36 26C36 19.9249 30.6274 15 24 15" stroke="#4D565F" stroke-width="2" stroke-linecap="round" stroke-linejoin="round"/>
<path d="M34 26L36 28L38 26" stroke="#4D565F" stroke-width="2" stroke-linecap="round" stroke-linejoin="round"/>
</svg>
