<svg width="57" height="57" viewBox="0 0 57 57" fill="none" xmlns="http://www.w3.org/2000/svg">
<g clip-path="url(#clip0)">
<path d="M7.125 55.8125C7.125 56.468 7.657 57 8.3125 57H48.6875C49.343 57 49.875 56.468 49.875 55.8125V3.5625C49.875 2.907 49.343 2.375 48.6875 2.375H38V1.1875C38 0.532 37.468 0 36.8125 0H20.1875C19.532 0 19 0.532 19 1.1875V2.375H8.3125C7.657 2.375 7.125 2.907 7.125 3.5625V55.8125ZM21.375 2.375H35.625V4.75H21.375V2.375ZM9.5 4.75H19V5.9375C19 6.593 19.532 7.125 20.1875 7.125H36.8125C37.468 7.125 38 6.593 38 5.9375V4.75H47.5V54.625H9.5V4.75Z" fill="#4D565F"/>
<path d="M41.5625 14.25H15.4375C14.782 14.25 14.25 14.782 14.25 15.4375C14.25 16.093 14.782 16.625 15.4375 16.625H41.5625C42.218 16.625 42.75 16.093 42.75 15.4375C42.75 14.782 42.218 14.25 41.5625 14.25Z" fill="#27AE60"/>
<path d="M41.5625 21.375H15.4375C14.782 21.375 14.25 21.907 14.25 22.5625C14.25 23.218 14.782 23.75 15.4375 23.75H41.5625C42.218 23.75 42.75 23.218 42.75 22.5625C42.75 21.907 42.218 21.375 41.5625 21.375Z" fill="#27AE60"/>
<path d="M41.5625 28.5H15.4375C14.782 28.5 14.25 29.032 14.25 29.6875C14.25 30.343 14.782 30.875 15.4375 30.875H41.5625C42.218 30.875 42.75 30.343 42.75 29.6875C42.75 29.032 42.218 28.5 41.5625 28.5Z" fill="#27AE60"/>
<path d="M41.5625 35.625H15.4375C14.782 35.625 14.25 36.157 14.25 36.8125C14.25 37.468 14.782 38 15.4375 38H41.5625C42.218 38 42.75 37.468 42.75 36.8125C42.75 36.157 42.218 35.625 41.5625 35.625Z" fill="#27AE60"/>
<path d="M37.321 42.75C35.2632 42.75 33.5889 44.4243 33.5889 46.4821C33.5889 48.54 35.2632 50.2143 37.321 50.2143C39.3789 50.2143 41.0532 48.54 41.0532 46.4821C41.0532 44.4243 39.3789 42.75 37.321 42.75ZM37.321 49.6401C35.5801 49.6401 34.163 48.223 34.163 46.4821C34.163 44.7412 35.5801 43.3242 37.321 43.3242C39.0619 43.3242 40.479 44.7412 40.479 46.4821C40.479 48.223 39.0619 49.6401 37.321 49.6401Z" fill="#4D565F" stroke="#27AE60" stroke-width="2"/>
</g>
<defs>
<clipPath id="clip0">
<rect width="57" height="57" fill="white"/>
</clipPath>
</defs>
</svg>
