<svg width="57" height="57" viewBox="0 0 57 57" fill="none" xmlns="http://www.w3.org/2000/svg">
<g clip-path="url(#clip0)">
<path d="M1.18761 29.7147C1.84074 29.7147 2.37274 29.1542 2.37274 28.4987C2.37274 27.7506 2.40361 27.0096 2.46536 26.2781C2.51999 25.6249 2.03549 25.0478 1.38236 24.9932C0.781487 24.9338 0.154487 25.4207 0.0998615 26.0762C0.0333615 26.8742 -0.00226345 27.6841 0.000111547 28.5486L1.18761 28.5533H0.000111547C0.000111547 29.2112 0.532112 29.7147 1.18761 29.7147Z" fill="#4D565F"/>
<path d="M1.78847 22.6395C1.89059 22.6656 1.99272 22.6799 2.09247 22.6799C2.61972 22.6799 3.09947 22.3284 3.23959 21.7964C3.43434 21.0578 3.66234 20.3334 3.91647 19.6233C4.14209 19.0081 3.82147 18.3265 3.20397 18.1033C2.59834 17.8776 1.90722 18.2006 1.68397 18.8157C1.40134 19.5924 1.15434 20.3856 0.940591 21.1907C0.776716 21.8225 1.15434 22.4709 1.78847 22.6395Z" fill="#4D565F"/>
<path d="M53.7719 38.9535C53.9049 39.0034 54.0403 39.0248 54.1757 39.0248C54.6602 39.0248 55.1162 38.7255 55.2919 38.241C55.5722 37.4644 55.8239 36.6759 56.0377 35.8708C56.2063 35.2367 55.831 34.5859 55.1969 34.4173C54.5747 34.2487 53.9144 34.6239 53.7434 35.258C53.5463 35.9967 53.3183 36.721 53.0618 37.4335C52.8338 38.0487 53.1544 38.7303 53.7719 38.9535Z" fill="#4D565F"/>
<path d="M19.593 53.0684C18.9731 52.8476 18.2962 53.1634 18.0706 53.7786C17.845 54.3937 18.1632 55.0753 18.7807 55.3009C19.555 55.5836 20.3482 55.8329 21.1533 56.0467C21.2578 56.0728 21.36 56.0871 21.4597 56.0871C21.987 56.0871 22.4667 55.7356 22.6069 55.2036C22.7731 54.5694 22.3979 53.9187 21.7661 53.7501C21.0251 53.5529 20.3031 53.3249 19.593 53.0684Z" fill="#4D565F"/>
<path d="M53.7134 21.634C53.9105 22.3632 54.0767 23.1042 54.2121 23.857C54.3166 24.4318 54.8154 24.8355 55.3782 24.8355C55.4471 24.8355 55.5207 24.8308 55.592 24.8165C56.2356 24.7002 56.6655 24.0827 56.5491 23.4367C56.3995 22.6149 56.219 21.8074 56.0052 21.0118C55.8342 20.38 55.1882 20 54.5494 20.1758C53.9152 20.3492 53.5424 21.0023 53.7134 21.634Z" fill="#4D565F"/>
<path d="M35.2817 53.7344C34.5502 53.9291 33.8092 54.0954 33.0564 54.2284C32.4104 54.3424 31.9805 54.9599 32.0945 55.6035C32.1966 56.1806 32.6977 56.5844 33.2606 56.5844C33.3295 56.5844 33.4007 56.5796 33.4696 56.5654C34.2914 56.4205 35.0989 56.24 35.8945 56.0262C36.5286 55.8576 36.9062 55.2069 36.7352 54.5727C36.5642 53.9434 35.9206 53.5634 35.2817 53.7344Z" fill="#4D565F"/>
<path d="M52.1382 17.3659C52.34 17.7958 52.7675 18.0475 53.2117 18.0475C53.3803 18.0475 53.5537 18.0119 53.7175 17.9359C54.3113 17.6556 54.5654 16.9479 54.2852 16.3541C53.9337 15.6036 53.5442 14.8698 53.1285 14.1549C52.796 13.5873 52.0669 13.3996 51.504 13.7274C50.9388 14.0575 50.7464 14.7843 51.0765 15.3519C51.4589 16.005 51.8128 16.6748 52.1382 17.3659Z" fill="#4D565F"/>
<path d="M44.0856 7.25846C44.4585 7.25846 44.829 7.08033 45.0594 6.75021C45.4346 6.21346 45.304 5.47246 44.7649 5.09721C44.088 4.62458 43.3874 4.18046 42.6654 3.76483C42.0954 3.43946 41.371 3.63421 41.0432 4.20421C40.7155 4.77421 40.9126 5.49858 41.4826 5.82633C42.1429 6.20633 42.7841 6.61246 43.4064 7.04708C43.6106 7.18958 43.8481 7.25846 44.0856 7.25846Z" fill="#4D565F"/>
<path d="M46.9037 9.96016C47.4452 10.4945 47.9582 11.0527 48.4499 11.6345C48.6874 11.9124 49.0199 12.0549 49.3571 12.0549C49.6279 12.0549 49.901 11.9623 50.1242 11.7723C50.6254 11.3495 50.6847 10.599 50.2644 10.0979C49.7252 9.46379 49.1647 8.85579 48.5781 8.27154C48.1126 7.80841 47.3621 7.81554 46.8966 8.27866C46.4359 8.74654 46.4406 9.49941 46.9037 9.96016Z" fill="#4D565F"/>
<path d="M3.27202 35.3144C3.07489 34.5852 2.91102 33.8442 2.77802 33.0937C2.66639 32.4477 2.03464 32.0226 1.40527 32.1271C0.761643 32.2387 0.327018 32.8539 0.441018 33.5022C0.583518 34.324 0.766393 35.1339 0.977768 35.9295C1.12264 36.4615 1.60239 36.8106 2.12489 36.8106C2.22702 36.8106 2.32914 36.7987 2.43127 36.7702C3.06539 36.5992 3.44064 35.9461 3.27202 35.3144Z" fill="#4D565F"/>
<path d="M51.1319 41.5559C50.7495 42.2138 50.341 42.8574 49.9064 43.4797C49.5288 44.0164 49.6594 44.7574 50.1962 45.1327C50.4052 45.2776 50.6427 45.3464 50.8778 45.3464C51.2507 45.3464 51.6212 45.1707 51.8492 44.8406C52.3242 44.1637 52.7707 43.4654 53.1863 42.7458C53.5164 42.1782 53.3217 41.4514 52.754 41.1237C52.1912 40.7959 51.462 40.9836 51.1319 41.5559Z" fill="#4D565F"/>
<path d="M30.6933 2.46525C30.7266 2.46762 30.7574 2.47 30.7931 2.47C31.4034 2.47 31.9236 2.00213 31.9734 1.38225C32.0281 0.729125 31.5412 0.154375 30.8881 0.09975C30.1019 0.03325 29.3039 0 28.4988 0H28.4133C27.7578 0 27.2686 0.532 27.2686 1.1875C27.2686 1.843 27.8433 2.375 28.4988 2.375C29.2398 2.375 29.9713 2.40587 30.6933 2.46525Z" fill="#4D565F"/>
<path d="M3.83537 42.7959C4.05624 43.1759 4.45524 43.3873 4.86374 43.3873C5.06799 43.3873 5.27224 43.3374 5.45987 43.2281C6.02512 42.898 6.21987 42.1736 5.89212 41.6036C5.51212 40.9505 5.15824 40.276 4.83524 39.5849C4.55737 38.9911 3.85437 38.737 3.25587 39.0149C2.66212 39.2928 2.40799 40.0005 2.68824 40.5943C3.03737 41.3471 3.42212 42.081 3.83537 42.7959Z" fill="#4D565F"/>
<path d="M40.0645 54.439C40.2331 54.439 40.4089 54.4034 40.5704 54.325C41.3185 53.9735 42.0547 53.5887 42.7696 53.1755C43.3349 52.8454 43.5296 52.121 43.2019 51.551C42.8694 50.9834 42.1402 50.791 41.5774 51.1187C40.9242 51.4987 40.2474 51.8502 39.5586 52.1756C38.9649 52.4559 38.7107 53.1636 38.991 53.755C39.1928 54.1872 39.6204 54.439 40.0645 54.439Z" fill="#4D565F"/>
<path d="M37.3494 3.91268C37.4848 3.96255 37.6178 3.98393 37.7532 3.98393C38.24 3.98393 38.6937 3.68468 38.8718 3.20018C39.095 2.58268 38.7744 1.90343 38.1569 1.68018C37.3827 1.39993 36.5894 1.15293 35.7819 0.941552C35.1407 0.775302 34.497 1.15293 34.3332 1.78705C34.1669 2.42118 34.5445 3.07193 35.1787 3.2358C35.9149 3.43293 36.6393 3.65855 37.3494 3.91268Z" fill="#4D565F"/>
<path d="M46.0657 50.6011C46.3364 50.6011 46.6096 50.5085 46.8304 50.3208C47.4646 49.7865 48.0726 49.2283 48.6592 48.6417C49.1223 48.1786 49.1223 47.4257 48.6592 46.9626C48.1961 46.4995 47.4432 46.4995 46.9801 46.9626C46.4409 47.4993 45.8828 48.0147 45.3009 48.504C44.7998 48.9267 44.7357 49.6772 45.1584 50.1783C45.3936 50.4586 45.7308 50.6011 46.0657 50.6011Z" fill="#4D565F"/>
<path d="M16.3757 2.69899C15.6252 3.05286 14.8913 3.43761 14.1788 3.85561C13.6136 4.18574 13.4212 4.91249 13.7513 5.48011C13.9722 5.85774 14.3688 6.06911 14.7773 6.06911C14.9816 6.06911 15.1882 6.01686 15.3758 5.90761C16.029 5.52524 16.7035 5.17136 17.3898 4.84836C17.9836 4.56811 18.2377 3.86036 17.9575 3.26899C17.6772 2.67286 16.9671 2.41636 16.3757 2.69899Z" fill="#4D565F"/>
<path d="M4.21444 15.9303C4.39969 16.0371 4.60394 16.087 4.80581 16.087C5.21669 16.087 5.61569 15.8733 5.83656 15.4909C6.21656 14.8306 6.62506 14.1894 7.05731 13.5648C7.43256 13.028 7.29718 12.287 6.76044 11.9141C6.22131 11.5365 5.48031 11.6695 5.10744 12.211C4.63481 12.8879 4.18831 13.5885 3.77506 14.3081C3.44969 14.8781 3.64681 15.6025 4.21444 15.9303Z" fill="#4D565F"/>
<path d="M11.7941 6.85326C11.3713 6.35214 10.6232 6.29276 10.1197 6.71314C9.48555 7.24989 8.87518 7.81039 8.2933 8.39701C7.83255 8.86251 7.83493 9.61539 8.29805 10.0761C8.5308 10.3065 8.83243 10.4229 9.13643 10.4229C9.4428 10.4229 9.7468 10.3065 9.97718 10.0738C10.5139 9.53464 11.0721 9.02164 11.6539 8.53001C12.1527 8.10489 12.2192 7.35439 11.7941 6.85326Z" fill="#4D565F"/>
<path d="M14.2816 53.2029C14.4692 53.3098 14.6734 53.362 14.8753 53.362C15.2838 53.362 15.6852 53.1506 15.9037 52.7683C16.2338 52.2006 16.0391 51.4739 15.4691 51.1461C14.8112 50.7661 14.1699 50.3576 13.5477 49.923C13.0157 49.5454 12.2747 49.676 11.8947 50.2128C11.5171 50.7495 11.6477 51.4905 12.1844 51.8658C12.8613 52.3431 13.5619 52.7896 14.2816 53.2029Z" fill="#4D565F"/>
<path d="M6.83552 45.1801C6.3344 45.6029 6.27027 46.351 6.69065 46.8521C7.2274 47.4886 7.7879 48.0966 8.37215 48.6832C8.6049 48.9136 8.9089 49.03 9.2129 49.03C9.5169 49.03 9.8209 48.9136 10.0536 48.6809C10.5168 48.2177 10.5168 47.4649 10.0536 47.0017C9.51452 46.465 9.00152 45.9069 8.51227 45.3226C8.0824 44.8239 7.33665 44.7597 6.83552 45.1801Z" fill="#4D565F"/>
<path d="M21.3484 3.31827C21.4505 3.31827 21.555 3.30639 21.6595 3.27552C22.3886 3.07839 23.1272 2.91214 23.8801 2.77914C24.5237 2.66514 24.956 2.04764 24.8396 1.40164C24.7256 0.755644 24.0962 0.321019 23.4621 0.442144C22.6404 0.589394 21.8305 0.769894 21.0372 0.986019C20.4055 1.15702 20.0326 1.81014 20.2036 2.44189C20.3461 2.97152 20.8259 3.31827 21.3484 3.31827Z" fill="#4D565F"/>
<path d="M29.7 55.8132C29.7 55.1577 29.1562 54.6257 28.5007 54.6257C27.7454 54.6257 26.9925 54.5924 26.2539 54.5307C25.6103 54.4689 25.026 54.9582 24.969 55.6137C24.9144 56.2668 25.3989 56.8415 26.0497 56.8985C26.8215 56.965 27.5839 56.9935 28.5268 56.9959V57.0007C29.1823 56.9983 29.7024 56.4663 29.7 55.8132Z" fill="#4D565F"/>
<path d="M55.812 27.2559C55.1565 27.2559 54.6221 27.8449 54.6221 28.5004C54.6221 29.2675 54.5889 30.0275 54.5247 30.7756C54.4701 31.4287 54.9522 32.0059 55.6054 32.0605C55.641 32.0629 55.6742 32.0652 55.7099 32.0652C56.3202 32.0652 56.838 31.5974 56.8902 30.9799C56.9591 30.1629 56.9971 29.3364 56.9947 28.5716C56.9971 28.5479 56.9995 28.4101 56.9995 28.384C56.9995 27.7285 56.4651 27.2559 55.812 27.2559Z" fill="#4D565F"/>
<path d="M42.4034 14.5973C41.9403 14.1342 41.1874 14.1342 40.7243 14.5973L14.5993 40.7223C14.1362 41.1855 14.1362 41.9383 14.5993 42.4015C14.8297 42.6342 15.1337 42.7506 15.4377 42.7506C15.7417 42.7506 16.0457 42.6342 16.2784 42.4038L42.4034 16.2788C42.8665 15.8133 42.8665 15.0628 42.4034 14.5973Z" fill="#27AE60"/>
<path d="M14.25 20.1875C14.25 23.4602 16.9124 26.125 20.1875 26.125C23.4626 26.125 26.125 23.4602 26.125 20.1875C26.125 16.9147 23.4626 14.25 20.1875 14.25C16.9124 14.25 14.25 16.9147 14.25 20.1875ZM20.1875 16.625C22.1516 16.625 23.75 18.2234 23.75 20.1875C23.75 22.1516 22.1516 23.75 20.1875 23.75C18.2234 23.75 16.625 22.1516 16.625 20.1875C16.625 18.2234 18.2234 16.625 20.1875 16.625Z" fill="#27AE60"/>
<path d="M42.75 36.8125C42.75 33.5398 40.0876 30.875 36.8125 30.875C33.5374 30.875 30.875 33.5398 30.875 36.8125C30.875 40.0853 33.5374 42.75 36.8125 42.75C40.0876 42.75 42.75 40.0853 42.75 36.8125ZM33.25 36.8125C33.25 34.8484 34.8484 33.25 36.8125 33.25C38.7766 33.25 40.375 34.8484 40.375 36.8125C40.375 38.7766 38.7766 40.375 36.8125 40.375C34.8484 40.375 33.25 38.7766 33.25 36.8125Z" fill="#27AE60"/>
</g>
<defs>
<clipPath id="clip0">
<rect width="57" height="57" fill="white"/>
</clipPath>
</defs>
</svg>
