<svg width="56" height="56" viewBox="0 0 56 56" fill="none" xmlns="http://www.w3.org/2000/svg">
<path d="M31.6448 24.4788C31.3109 24.2017 30.9255 23.9931 30.5109 23.8651C30.0291 23.764 29.5377 23.7162 29.0455 23.7228H26.8709C26.5845 23.7062 26.301 23.7886 26.0682 23.9561C25.8939 24.1857 25.8108 24.4716 25.8349 24.7588V30.8558C25.8127 31.0812 25.8455 31.3086 25.9305 31.5185C25.9492 31.5978 25.9841 31.6723 26.0331 31.7374C26.0821 31.8024 26.1441 31.8566 26.2152 31.8965C26.4311 32.007 26.6732 32.0562 26.9152 32.0388H29.0898C29.4386 32.0326 29.7865 32.0006 30.1305 31.9432C30.42 31.8875 30.7047 31.8095 30.9822 31.7098C31.2389 31.5925 31.4752 31.435 31.6822 31.2431C31.9549 30.9766 32.1904 30.6744 32.3822 30.3448C32.5799 29.9903 32.7231 29.608 32.8068 29.2108C32.9058 28.7611 32.9535 28.3016 32.9492 27.8411C32.9988 27.2187 32.9073 26.593 32.6815 26.0108C32.4556 25.4287 32.1013 24.905 31.6448 24.4788ZM30.4152 30.3401C30.2841 30.4356 30.1414 30.514 29.9905 30.5735C29.8391 30.6231 29.6826 30.6552 29.5238 30.6691H27.5872V24.9968H28.7212C29.17 24.9797 29.6182 25.0437 30.0442 25.1858C30.2419 25.2489 30.4241 25.3531 30.5789 25.4914C30.7337 25.6297 30.8576 25.7991 30.9425 25.9885C31.2196 26.562 31.3495 27.1955 31.3205 27.8318C31.3563 28.29 31.2943 28.7506 31.1387 29.183C30.983 29.6155 30.7371 30.0099 30.4175 30.3401H30.4152Z" fill="#27AE60"/>
<path d="M46.5735 13.9801L46.5268 13.9335V13.8868L37.5995 4.89879L37.5528 4.85212C37.5405 4.85212 37.5286 4.84721 37.5198 4.83846C37.5111 4.8297 37.5062 4.81783 37.5062 4.80546C37.4938 4.80546 37.4819 4.80054 37.4732 4.79179C37.4644 4.78304 37.4595 4.77117 37.4595 4.75879C37.318 4.67822 37.1546 4.64472 36.9928 4.66312H14.8612C14.0354 4.65815 13.2415 4.98127 12.6538 5.56146L12.6072 5.60812C12.0169 6.2175 11.6828 7.0301 11.6738 7.87846V48.1168C11.6735 48.967 12.0089 49.783 12.6072 50.3871C13.2079 50.9819 14.0159 51.3206 14.8612 51.3321H43.4725C43.8931 51.3317 44.3095 51.248 44.6975 51.0858C45.0856 50.9236 45.4377 50.6861 45.7335 50.3871C46.3238 49.7777 46.6579 48.9651 46.6668 48.1168V14.4538C46.6634 14.2917 46.6318 14.1314 46.5735 13.9801ZM37.8818 8.06979L43.1902 13.4131H39.2912C39.1057 13.4183 38.9213 13.3831 38.7508 13.3097C38.5803 13.2364 38.4279 13.1267 38.3042 12.9885C38.0432 12.7222 37.8923 12.3672 37.8818 11.9945V8.06979ZM44.6485 48.1168C44.6465 48.2767 44.6121 48.4346 44.5476 48.581C44.483 48.7273 44.3896 48.8591 44.2728 48.9685C44.1653 49.0857 44.0348 49.1798 43.8896 49.2448C43.7443 49.3098 43.5873 49.3444 43.4282 49.3465H14.8612C14.5498 49.3371 14.2512 49.22 14.0165 49.0151C13.9061 48.9034 13.8199 48.7701 13.7633 48.6236C13.7067 48.477 13.6809 48.3204 13.6875 48.1635V7.83412C13.6895 7.67418 13.7239 7.5163 13.7884 7.36995C13.853 7.22361 13.9464 7.0918 14.0632 6.98246L14.1098 6.93579C14.3314 6.73946 14.6123 6.62283 14.9078 6.60446H35.9545V11.9478C35.9557 12.403 36.0467 12.8535 36.2224 13.2735C36.398 13.6934 36.6547 14.0746 36.9779 14.3952C37.3011 14.7158 37.6843 14.9694 38.1057 15.1417C38.5271 15.3139 38.9783 15.4012 39.4335 15.3988H44.6485V48.1168Z" fill="#4D565F"/>
<path d="M23.7177 24.3806C23.4683 24.1435 23.1568 23.9817 22.8194 23.914C22.3389 23.8051 21.8465 23.7573 21.354 23.7716H19.1794C18.8922 23.7476 18.6062 23.8307 18.3767 24.005C18.1877 24.1473 18.1434 24.4296 18.1434 24.8076V31.2336C18.1336 31.5048 18.2158 31.7712 18.3767 31.9896C18.4534 32.074 18.549 32.1391 18.6556 32.1797C18.7623 32.2202 18.8769 32.235 18.9904 32.223C19.1069 32.2211 19.2217 32.1948 19.3274 32.1457C19.4331 32.0967 19.5273 32.026 19.604 31.9383C19.7649 31.7199 19.8472 31.4534 19.8374 31.1823V28.8186H21.4077C22.2336 28.8738 23.0529 28.6395 23.7247 28.156C23.9968 27.9153 24.2105 27.6158 24.3495 27.2803C24.4886 26.9447 24.5494 26.5819 24.5274 26.2193C24.5379 25.8479 24.4736 25.4781 24.3384 25.132C24.1698 24.8522 23.9606 24.599 23.7177 24.3806ZM22.5744 27.0336C22.4202 27.2368 22.2052 27.3856 21.9607 27.4583C21.6399 27.5585 21.3051 27.6065 20.969 27.6006H19.835V25.048H20.969C21.5015 24.9969 22.0353 25.1304 22.481 25.426C22.5967 25.5438 22.686 25.6847 22.7431 25.8396C22.8002 25.9944 22.8238 26.1596 22.8124 26.3243C22.7912 26.5764 22.7096 26.8198 22.5744 27.0336Z" fill="#27AE60"/>
<path d="M35.4188 23.6758C35.2034 23.6958 34.9945 23.7602 34.8051 23.8648C34.7296 23.8935 34.6611 23.9378 34.604 23.9949C34.5469 24.052 34.5025 24.1206 34.4738 24.1961C34.3846 24.3875 34.3514 24.6003 34.3781 24.8098V31.1891C34.3605 31.4612 34.4435 31.7303 34.6115 31.9451C34.6882 32.0295 34.7838 32.0946 34.8904 32.1351C34.997 32.1757 35.1117 32.1905 35.2251 32.1784C35.4502 32.1722 35.6665 32.09 35.8388 31.9451C35.9997 31.7267 36.0819 31.4602 36.0721 31.1891V28.4474H38.8721C38.9745 28.4563 39.0777 28.4441 39.1752 28.4116C39.2727 28.3791 39.3625 28.327 39.4391 28.2585C39.5056 28.2014 39.5575 28.1293 39.5903 28.0481C39.6232 27.9669 39.6362 27.879 39.6281 27.7918C39.6319 27.705 39.6169 27.6184 39.5843 27.5379C39.5517 27.4574 39.5022 27.3848 39.4391 27.3251C39.2735 27.2065 39.0758 27.1406 38.8721 27.1361H36.0721V25.0104H39.3808C39.4906 25.0229 39.6017 25.0125 39.7073 24.98C39.8129 24.9475 39.9107 24.8935 39.9945 24.8214C40.1156 24.6939 40.1831 24.5248 40.1831 24.3489C40.1831 24.1731 40.1156 24.0039 39.9945 23.8764C39.9107 23.8044 39.8129 23.7504 39.7073 23.7179C39.6017 23.6854 39.4906 23.675 39.3808 23.6874L35.4188 23.6758Z" fill="#27AE60"/>
</svg>
