<svg width="56" height="56" viewBox="0 0 56 56" fill="none" xmlns="http://www.w3.org/2000/svg">
<rect x="11" y="34" width="19" height="10" fill="#27AE60"/>
<path d="M34 34H11V44H34L29 39L34 34Z" stroke="#27AE60" stroke-width="2" stroke-linecap="round" stroke-linejoin="round"/>
<path d="M46.5735 13.9801L46.5268 13.9335V13.8868L37.5995 4.89879L37.5528 4.85212C37.5405 4.85212 37.5286 4.84721 37.5198 4.83846C37.5111 4.8297 37.5062 4.81783 37.5062 4.80546C37.4938 4.80546 37.4819 4.80054 37.4732 4.79179C37.4644 4.78304 37.4595 4.77117 37.4595 4.75879C37.318 4.67822 37.1546 4.64472 36.9928 4.66312H14.8612C14.0354 4.65815 13.2415 4.98127 12.6538 5.56146L12.6072 5.60812C12.0169 6.2175 11.6828 7.0301 11.6738 7.87846V48.1168C11.6735 48.967 12.0089 49.783 12.6072 50.3871C13.2079 50.9819 14.0159 51.3206 14.8612 51.3321H43.4725C43.8931 51.3317 44.3095 51.248 44.6975 51.0858C45.0856 50.9236 45.4377 50.6861 45.7335 50.3871C46.3238 49.7777 46.6579 48.9651 46.6668 48.1168V14.4538C46.6634 14.2917 46.6318 14.1314 46.5735 13.9801ZM37.8818 8.06979L43.1902 13.4131H39.2912C39.1057 13.4183 38.9213 13.3831 38.7508 13.3097C38.5803 13.2364 38.4279 13.1267 38.3042 12.9885C38.0432 12.7222 37.8923 12.3672 37.8818 11.9945V8.06979ZM44.6485 48.1168C44.6465 48.2767 44.6121 48.4346 44.5476 48.581C44.483 48.7273 44.3896 48.8591 44.2728 48.9685C44.1653 49.0857 44.0348 49.1798 43.8896 49.2448C43.7443 49.3098 43.5873 49.3444 43.4282 49.3465H14.8612C14.5498 49.3371 14.2512 49.22 14.0165 49.0151C13.9061 48.9034 13.8199 48.7701 13.7633 48.6236C13.7067 48.477 13.6809 48.3204 13.6875 48.1635V7.83412C13.6895 7.67418 13.7239 7.5163 13.7884 7.36995C13.853 7.22361 13.9464 7.0918 14.0632 6.98246L14.1098 6.93579C14.3314 6.73946 14.6123 6.62283 14.9078 6.60446H35.9545V11.9478C35.9557 12.403 36.0467 12.8535 36.2224 13.2735C36.398 13.6934 36.6547 14.0746 36.9779 14.3952C37.3011 14.7158 37.6843 14.9694 38.1057 15.1417C38.5271 15.3139 38.9783 15.4012 39.4335 15.3988H44.6485V48.1168Z" fill="#4D565F"/>
<path d="M16 16.5H37M16 20.5H29M16 24.5H40.5M16 28.5H40.5" stroke="#27AE60" stroke-width="2" stroke-linecap="round"/>
<rect x="44" y="32" width="4" height="13" fill="white"/>
<path d="M48.7778 31H43.2222V40.8077H41L46 46L51 40.8077H48.7778V31Z" stroke="#27AE60" stroke-width="2" stroke-linecap="round" stroke-linejoin="round"/>
<rect x="29" y="34" width="3" height="3" fill="#27AE60"/>
<rect x="29" y="41" width="3" height="3" fill="#27AE60"/>
</svg>
